<?xml version="1.0"?>
<svg fill="#ffaa00" xmlns="http://www.w3.org/2000/svg" viewBox="0 0 30 30" width="30px" height="30px">
    <path
        d="M 9.2437388,8.432701 9.8230515,7.1371473 H 20.756262 L 20.176949,8.432701 h -3.728668 q 0.832104,0.8215707 1.053296,2.180322 h 3.254685 l -0.579313,1.295554 h -2.591108 q -0.05266,1.327153 -0.695175,2.222454 -0.684642,0.979565 -2.001262,1.358752 0.684642,0.231725 1.327153,0.990098 0.621445,0.716241 1.306086,2.085525 L 19.6819,22.862853 H 17.396248 L 15.384453,18.82873 Q 14.594481,17.238253 13.87824,16.732671 13.140933,16.216557 11.876978,16.216557 H 9.5597276 v -1.748471 h 2.6753714 q 1.537812,0 2.317251,-0.705709 0.716241,-0.653043 0.779438,-1.8538 H 9.2437388 L 9.8230515,10.613023 H 15.215926 Q 15.026332,9.907315 14.55235,9.3596013 13.772911,8.432701 12.235099,8.432701 Z"
        id="path6679"
        style="font-size:38.4086px;line-height:1.25;font-family:'Square721 Cn BT';-inkscape-font-specification:'Square721 Cn BT';word-spacing:0px;fill:#ffaa00;stroke-width:0.337055" />
    <path id="path6775"
        style="fill:none;stroke:#ff0000;stroke-width:2;stroke-linecap:round;stroke-linejoin:round;paint-order:stroke fill markers"
        d="M 15.719363,3.0398198 A 11.981793,11.981793 0 0 1 26.960285,15.717589 11.981793,11.981793 0 0 1 14.284184,26.960391 11.981793,11.981793 0 0 1 3.0395008,14.285958 11.981793,11.981793 0 0 1 15.712266,3.039395" />
    <path style="fill:none;stroke:#ff0000;stroke-width:1px;stroke-linecap:butt;stroke-linejoin:miter;stroke-opacity:1"
        d="M 5.5704831,22.862853 24.95977,8.3391928" id="path7502" />
</svg>